<?xml version="1.0" encoding="utf-8"?>
<svg xmlns="http://www.w3.org/2000/svg" viewBox="0 0 500 500" style="shape-rendering: geometricprecision;">
  <g transform="matrix(1, 0, 0, 1, 114.836983, 128.45755)">
    <path class="fil0" d="M 312.645 147.039 L 318.645 153.039 C 319.645 154.039 317.645 157.039 316.645 155.039 L 309.645 149.039 C 306.645 152.039 301.645 151.039 298.645 148.039 C 294.645 144.039 294.645 139.039 297.645 135.039 C 301.645 131.039 307.645 131.039 311.645 135.039 C 314.645 138.039 314.645 143.039 312.645 147.039 Z M 300.645 137.039 C 298.645 140.039 298.645 143.039 300.645 146.039 C 302.645 148.039 306.645 148.039 308.645 146.039 C 311.645 143.039 311.645 140.039 308.645 137.039 C 306.645 135.039 302.645 135.039 300.645 137.039 Z" style="fill-rule: nonzero; fill: rgb(255, 255, 255);"/>
  </g>
</svg>