<?xml version="1.0" encoding="utf-8"?>
<svg xmlns="http://www.w3.org/2000/svg" viewBox="0 0 500 500">
  <path d="M 386.088 256.634 C 358.91 258.576 352.843 245.229 347.505 229.699 C 343.641 218.459 339.255 204.301 337.281 197.479 C 349.771 178.3 364.249 155.272 385.805 121.229 L 345.472 121.229 C 338.301 132.473 331.218 143.859 324.208 154.995 C 322.206 149.39 319.448 143.355 316.244 138.225 C 306.962 123.843 292.364 113.943 270.608 115.275 C 241.848 117.037 220.123 130.819 202.587 148.355 C 186.507 164.432 170.824 187.915 169.04 214.513 C 166.653 250.119 192.665 270.513 222.154 272.75 C 245.458 274.519 262.909 268.324 277.597 260.637 C 287.567 255.42 308.782 237.743 315.131 229.862 C 319.843 251.711 332.003 272.649 359.395 272.649 C 376.372 272.649 387.125 263.329 392.907 256.127 C 390.831 256.287 388.575 256.455 386.087 256.633 L 386.088 256.634 Z M 255.234 243.4 C 248.943 247.958 240.874 252.8 232.404 254.116 C 211.341 257.386 202.052 241.033 203.518 219.172 C 204.662 202.104 211.433 186.292 219.358 172.582 C 227.482 158.529 236.967 146.077 247.78 138.572 C 251.64 135.889 257.44 132.694 265.484 132.048 C 284.842 130.494 291.966 151.438 296.891 168.988 C 299.191 177.224 300.74 185.602 301.487 190.008 C 295.967 198.111 278.832 226.302 255.234 243.4 Z" fill="#e94e09" style="stroke-width: 1;"/>
</svg>