<?xml version="1.0" standalone="no"?>
<!DOCTYPE svg PUBLIC "-//W3C//DTD SVG 20010904//EN"
 "http://www.w3.org/TR/2001/REC-SVG-20010904/DTD/svg10.dtd">
<svg version="1.0" xmlns="http://www.w3.org/2000/svg"
 width="200.000000pt" height="200.000000pt" viewBox="0 0 200.000000 200.000000"
 preserveAspectRatio="xMidYMid meet">

<g transform="translate(0.000000,200.000000) scale(0.100000,-0.100000)"
fill="#000000" stroke="none">
<path d="M825 1753 c-254 -30 -455 -105 -552 -205 -49 -51 -63 -82 -63 -147 0
-112 124 -214 346 -284 93 -29 264 -57 350 -57 l59 1 35 51 c46 68 135 133
217 158 122 38 282 19 375 -45 20 -14 40 -25 43 -25 21 0 101 69 126 108 33
52 39 119 15 175 -47 114 -284 228 -542 262 -103 13 -328 18 -409 8z m-169
-147 l-15 -35 -46 20 c-55 24 -91 19 -106 -15 -8 -18 -7 -30 5 -55 9 -17 20
-31 24 -31 4 1 23 14 42 30 41 36 49 36 84 9 38 -30 35 -72 -8 -115 -30 -30
-40 -34 -84 -34 -28 0 -63 4 -77 10 -24 9 -25 12 -12 31 14 18 13 25 -9 62
-13 23 -24 47 -24 54 0 21 58 80 96 98 32 15 43 16 78 5 35 -11 42 -10 51 4
16 26 17 1 1 -38z m824 -74 c30 -64 63 -124 73 -134 22 -23 7 -31 -49 -26 -32
2 -38 7 -36 22 2 10 -2 31 -8 47 -12 27 -16 29 -66 29 -50 0 -55 -2 -70 -32
-15 -29 -15 -33 0 -43 21 -16 10 -25 -30 -25 -34 0 -53 14 -31 23 7 3 40 62
73 131 37 80 64 126 74 125 9 0 36 -45 70 -117z m-529 79 c52 -52 37 -136 -36
-200 -47 -41 -100 -43 -145 -5 -65 56 -76 115 -30 167 39 45 84 66 138 67 35
0 49 -6 73 -29z m171 13 c-20 -14 -22 -24 -22 -104 0 -48 3 -95 6 -104 14 -36
114 -9 114 31 0 7 4 13 10 13 8 0 6 -41 -6 -77 -2 -9 -24 -13 -63 -13 l-60 0
5 -29 c5 -23 1 -35 -20 -56 -32 -32 -59 -30 -165 15 -81 35 -97 36 -124 13
-18 -17 -19 -17 -16 1 2 10 16 28 30 38 l26 20 92 -36 c125 -49 161 -47 161 5
0 26 -3 29 -34 29 -19 0 -38 5 -41 10 -3 6 0 10 9 10 11 0 16 19 21 74 8 88
-1 152 -23 166 -12 7 3 9 53 10 66 0 68 -1 47 -16z"/>
<path d="M532 1474 c-18 -14 -30 -30 -27 -35 9 -13 80 -30 99 -23 24 9 30 43
10 65 -23 25 -43 24 -82 -7z"/>
<path d="M1371 1542 c-11 -22 -21 -44 -21 -47 0 -3 18 -5 40 -5 45 0 48 8 21
59 l-19 35 -21 -42z"/>
<path d="M780 1580 c-35 -35 -17 -99 39 -139 60 -43 111 -15 111 60 0 51 -8
67 -41 84 -39 21 -85 19 -109 -5z"/>
<path d="M1262 1200 c-55 -13 -72 -36 -72 -97 l0 -53 85 0 c69 0 85 -3 85 -15
0 -13 -22 -15 -139 -15 -135 0 -140 -1 -170 -26 -39 -33 -55 -90 -48 -176 9
-110 39 -148 116 -148 l41 0 0 50 c0 113 40 140 205 140 113 0 117 1 140 26
23 25 25 34 25 139 0 129 -12 156 -78 175 -42 11 -141 12 -190 0z m23 -75 c0
-25 -4 -30 -25 -30 -19 0 -26 6 -28 24 -4 25 13 43 38 38 9 -1 15 -13 15 -32z"/>
<path d="M210 1054 c0 -102 2 -114 25 -148 38 -56 71 -81 170 -130 126 -63
285 -103 487 -122 l67 -6 -18 53 c-11 30 -22 80 -26 111 l-7 57 -47 6 c-202
25 -397 78 -491 132 -70 40 -125 89 -143 125 -16 33 -17 32 -17 -78z"/>
<path d="M1762 1114 l-24 -36 20 -52 c11 -28 23 -58 25 -66 3 -8 6 31 6 88 1
56 0 102 -1 102 -2 0 -13 -16 -26 -36z"/>
<path d="M1560 978 c0 -58 -27 -109 -70 -130 -27 -14 -60 -18 -146 -18 -103 0
-112 -2 -132 -23 -20 -21 -22 -34 -22 -144 0 -136 2 -141 79 -168 78 -27 189
-13 236 31 20 19 25 32 25 74 l0 50 -85 0 c-50 0 -85 4 -85 10 0 6 54 10 141
10 77 0 149 4 159 10 23 12 60 108 60 155 0 61 -22 138 -46 162 -17 17 -34 23
-69 23 l-45 0 0 -42z m-72 -405 c4 -30 -31 -49 -52 -27 -18 18 -18 17 -10 39
10 25 58 16 62 -12z"/>
<path d="M210 644 c0 -102 2 -114 25 -148 38 -56 71 -81 170 -130 330 -163
859 -164 1190 -1 98 48 132 74 170 131 23 34 25 46 25 143 l0 106 -40 -81
c-102 -209 -334 -304 -550 -226 -44 16 -89 21 -225 25 -191 6 -331 29 -473 78
-140 49 -244 118 -275 181 -16 33 -17 32 -17 -78z"/>
</g>
</svg>
