<svg width="359" height="426" viewBox="0 0 359 426" fill="none" xmlns="http://www.w3.org/2000/svg">
<path d="M75.37 177.08H305.53C305.71 177.081 305.887 177.121 306.049 177.199C306.211 177.277 306.354 177.39 306.467 177.529C306.58 177.669 306.661 177.832 306.703 178.007C306.745 178.182 306.747 178.364 306.71 178.54L291.43 248.79C291.357 249.121 291.173 249.418 290.907 249.63C290.642 249.843 290.311 249.959 289.97 249.96H76.16C76.0357 249.96 75.9126 249.984 75.7979 250.032C75.6832 250.079 75.5792 250.149 75.4918 250.236C75.4043 250.323 75.3353 250.427 75.2887 250.541C75.242 250.655 75.2187 250.777 75.22 250.9C75.26 266.54 75.2467 289.823 75.18 320.75C75.1733 324.55 75.5 327.943 76.16 330.93C78.43 341.11 85.78 350.06 96 352.71C99.11 353.52 103.45 354.09 107.38 354.1C175.033 354.12 246.8 354.12 322.68 354.1C322.839 354.099 322.996 354.135 323.14 354.203C323.284 354.27 323.411 354.37 323.51 354.493C323.61 354.616 323.681 354.759 323.717 354.913C323.754 355.066 323.755 355.226 323.72 355.38L308.62 424.8C308.535 425.196 308.317 425.551 308.003 425.806C307.688 426.061 307.295 426.2 306.89 426.2C169.997 426.273 98.3167 426.287 91.85 426.24C88.71 426.22 83.95 426.18 79.79 425.52C57.57 422.033 39.19 411.793 24.65 394.8C13.6567 381.947 6.31667 366.463 2.63 348.35C1.55667 343.05 0.963334 335.437 0.850001 325.51C0.0400009 252.38 0.309984 187.74 0.269984 106C0.263317 102.88 0.406674 98.6 0.700007 93.16C0.966674 88.14 1.43999 83.89 2.11999 80.41C5.97999 60.55 15.49 41.34 30.01 27.35C39.5633 18.15 50.24 11.2166 62.04 6.54998C68.0667 4.16998 74.6033 2.39333 81.65 1.21999C86.4033 0.42666 93.16 0.0333337 101.92 0.0400003C149.3 0.0533337 234.66 0.0566462 358 0.0499796C358.2 0.0497393 358.397 0.0944714 358.577 0.1809C358.757 0.267329 358.916 0.393278 359.042 0.549522C359.167 0.705766 359.256 0.888353 359.303 1.08395C359.349 1.27954 359.352 1.48318 359.31 1.67998L344.03 71.92C343.957 72.2628 343.769 72.57 343.497 72.7902C343.226 73.0105 342.888 73.1304 342.54 73.13C204.673 73.1567 127.22 73.1567 110.18 73.13C104.007 73.1233 99.5833 73.4667 96.91 74.16C86.56 76.86 78.22 86.42 76.23 96.43C75.5033 100.043 75.15 105.737 75.17 113.51C75.2233 137.27 75.1933 158.36 75.08 176.78C75.08 176.86 75.1106 176.936 75.1649 176.992C75.2193 177.048 75.2931 177.08 75.37 177.08Z" fill="#8EE5D0"/>
</svg>
